<svg xmlns="http://www.w3.org/2000/svg" xmlns:xlink="http://www.w3.org/1999/xlink" version="1.1" id="Layer_1" x="0px" y="0px" viewBox="0 0 512 512" style="enable-background:new 0 0 512 512;" xml:space="preserve" width="512" height="512">
<g>
	<g>
		<rect x="272.696" y="280.342" width="183.118" height="231.658"></rect>
	</g>
</g>
<g>
	<g>
		<rect x="56.186" y="280.342" width="183.118" height="231.658"></rect>
	</g>
</g>
<g>
	<g>
		<path d="M398.762,94.432c4.953-9.075,7.772-19.474,7.772-30.521C406.535,28.67,377.864,0,342.624,0    c-26.065,0-52.735,13.468-73.168,36.951c-5.057,5.811-9.561,12.056-13.456,18.56c-3.895-6.504-8.399-12.749-13.456-18.56    C222.111,13.468,195.442,0,169.376,0c-35.24,0-63.911,28.671-63.911,63.911c0,11.046,2.818,21.446,7.772,30.521H26.2v152.519    h213.104V94.432h33.391v152.519H485.8V94.432H398.762z M169.376,94.432c-16.828,0-30.52-13.692-30.52-30.521    c0-16.829,13.692-30.52,30.52-30.52c30.299,0,59.106,30.993,67.489,61.04H169.376z M342.624,94.432h-67.489    c8.383-30.048,37.19-61.04,67.489-61.04c16.828,0,30.52,13.692,30.52,30.52C373.143,80.741,359.452,94.432,342.624,94.432z"></path>
	</g>
</g>
<g>
</g>
<g>
</g>
<g>
</g>
<g>
</g>
<g>
</g>
<g>
</g>
<g>
</g>
<g>
</g>
<g>
</g>
<g>
</g>
<g>
</g>
<g>
</g>
<g>
</g>
<g>
</g>
<g>
</g>
</svg>